<mxfile host="app.diagrams.net" agent="Mozilla/5.0 (Windows NT 10.0; Win64; x64) AppleWebKit/537.36 (KHTML, like Gecko) Chrome/137.0.0.0 Safari/537.36" version="27.1.6">
  <diagram name="技术路线图" id="mQfqwQIYqqr6NxR5Nnwi">
    <mxGraphModel dx="1928" dy="1004" grid="1" gridSize="10" guides="1" tooltips="1" connect="1" arrows="1" fold="1" page="1" pageScale="1" pageWidth="827" pageHeight="1169" math="0" shadow="0">
      <root>
        <mxCell id="0" />
        <mxCell id="1" parent="0" />
        <mxCell id="ZNrnWP-VKCsw-JMFQ_0V-6" value="" style="rounded=0;whiteSpace=wrap;html=1;strokeColor=default;strokeWidth=2;strokeDashArray=5 5;fillColor=#FAFAFA;dashed=1;" parent="1" vertex="1">
          <mxGeometry x="510" y="395" width="390" height="215" as="geometry" />
        </mxCell>
        <mxCell id="ZNrnWP-VKCsw-JMFQ_0V-1" value="ForestGEO样地&lt;br&gt;地面普查数据库" style="shape=datastore;whiteSpace=wrap;html=1;" parent="1" vertex="1">
          <mxGeometry x="520" y="442.5" width="160" height="50" as="geometry" />
        </mxCell>
        <mxCell id="ZNrnWP-VKCsw-JMFQ_0V-2" value="激光雷达提取&lt;br&gt;森林三维结构数据库" style="shape=datastore;whiteSpace=wrap;html=1;" parent="1" vertex="1">
          <mxGeometry x="700" y="442.5" width="160" height="50" as="geometry" />
        </mxCell>
        <mxCell id="ZNrnWP-VKCsw-JMFQ_0V-3" value="森林三维场景&lt;br&gt;光辐射分布数据库" style="shape=datastore;whiteSpace=wrap;html=1;" parent="1" vertex="1">
          <mxGeometry x="700" y="525" width="160" height="50" as="geometry" />
        </mxCell>
        <mxCell id="ZNrnWP-VKCsw-JMFQ_0V-7" value="ForestGEO样地&lt;br&gt;树木高度数据库" style="shape=datastore;whiteSpace=wrap;html=1;" parent="1" vertex="1">
          <mxGeometry x="520" y="525" width="160" height="50" as="geometry" />
        </mxCell>
        <mxCell id="ZNrnWP-VKCsw-JMFQ_0V-8" value="&lt;font face=&quot;Times New Roman&quot;&gt;本研究中野外调查、遥感及模型提取的数据库&lt;/font&gt;" style="text;html=1;strokeColor=none;fillColor=none;align=center;verticalAlign=middle;whiteSpace=wrap;rounded=0;fontStyle=1;fontSize=16;fontColor=#D32F2F;" parent="1" vertex="1">
          <mxGeometry x="555" y="405" width="325" height="25" as="geometry" />
        </mxCell>
        <mxCell id="xP7PlJAVUtk49BZv3N8O-84" value="" style="edgeStyle=orthogonalEdgeStyle;rounded=0;orthogonalLoop=1;jettySize=auto;html=1;" edge="1" parent="1" target="xP7PlJAVUtk49BZv3N8O-78">
          <mxGeometry relative="1" as="geometry" />
        </mxCell>
        <mxCell id="xP7PlJAVUtk49BZv3N8O-92" value="" style="group" vertex="1" connectable="0" parent="1">
          <mxGeometry x="20" y="395" width="470" height="320" as="geometry" />
        </mxCell>
        <mxCell id="xP7PlJAVUtk49BZv3N8O-123" value="" style="group" vertex="1" connectable="0" parent="xP7PlJAVUtk49BZv3N8O-92">
          <mxGeometry width="440" height="270" as="geometry" />
        </mxCell>
        <mxCell id="_0T6k4tGbEaEnZlmFoHE-35" value="" style="rounded=0;whiteSpace=wrap;html=1;strokeColor=default;strokeWidth=2;strokeDashArray=5 5;fillColor=#FAFAFA;dashed=1;container=0;" parent="xP7PlJAVUtk49BZv3N8O-123" vertex="1">
          <mxGeometry width="440" height="270" as="geometry" />
        </mxCell>
        <mxCell id="_0T6k4tGbEaEnZlmFoHE-36" value="&lt;font style=&quot;font-size: 14px;&quot; face=&quot;Times New Roman&quot;&gt;第三章：&lt;font style=&quot;color: rgb(0, 0, 0);&quot;&gt;森林三维结构和树木多样性关系探究&lt;/font&gt;&lt;/font&gt;" style="text;html=1;strokeColor=none;fillColor=none;align=left;verticalAlign=middle;whiteSpace=wrap;rounded=0;fontStyle=1;fontSize=12;fontColor=#D32F2F;container=0;" parent="xP7PlJAVUtk49BZv3N8O-123" vertex="1">
          <mxGeometry x="10" width="300" height="40" as="geometry" />
        </mxCell>
        <mxCell id="_0T6k4tGbEaEnZlmFoHE-43" value="&lt;font style=&quot;font-size: 11px;&quot;&gt;1.森林三维结构参数与树木多样性的关系是否具有一致性？&lt;/font&gt;" style="rounded=0;whiteSpace=wrap;html=1;fillColor=#E8F5E8;strokeColor=#388E3C;fontSize=10;container=0;" parent="xP7PlJAVUtk49BZv3N8O-123" vertex="1">
          <mxGeometry x="30" y="215" width="302.5" height="40" as="geometry" />
        </mxCell>
        <mxCell id="xP7PlJAVUtk49BZv3N8O-60" style="edgeStyle=orthogonalEdgeStyle;rounded=0;orthogonalLoop=1;jettySize=auto;html=1;entryX=0.5;entryY=0;entryDx=0;entryDy=0;" edge="1" parent="xP7PlJAVUtk49BZv3N8O-123" source="xP7PlJAVUtk49BZv3N8O-57" target="_0T6k4tGbEaEnZlmFoHE-38">
          <mxGeometry relative="1" as="geometry" />
        </mxCell>
        <mxCell id="xP7PlJAVUtk49BZv3N8O-57" value="ForestGEO样地&lt;br&gt;地面普查数据库" style="shape=datastore;whiteSpace=wrap;html=1;container=0;" vertex="1" parent="xP7PlJAVUtk49BZv3N8O-123">
          <mxGeometry x="20" y="45" width="160" height="50" as="geometry" />
        </mxCell>
        <mxCell id="xP7PlJAVUtk49BZv3N8O-59" style="edgeStyle=orthogonalEdgeStyle;rounded=0;orthogonalLoop=1;jettySize=auto;html=1;entryX=0.5;entryY=0;entryDx=0;entryDy=0;" edge="1" parent="xP7PlJAVUtk49BZv3N8O-123" source="xP7PlJAVUtk49BZv3N8O-58" target="_0T6k4tGbEaEnZlmFoHE-39">
          <mxGeometry relative="1" as="geometry" />
        </mxCell>
        <mxCell id="xP7PlJAVUtk49BZv3N8O-58" value="激光雷达提取&lt;br&gt;森林三维结构数据库" style="shape=datastore;whiteSpace=wrap;html=1;container=0;" vertex="1" parent="xP7PlJAVUtk49BZv3N8O-123">
          <mxGeometry x="260" y="45" width="160" height="50" as="geometry" />
        </mxCell>
        <mxCell id="xP7PlJAVUtk49BZv3N8O-69" value="" style="edgeStyle=orthogonalEdgeStyle;rounded=0;orthogonalLoop=1;jettySize=auto;html=1;" edge="1" parent="xP7PlJAVUtk49BZv3N8O-123" source="_0T6k4tGbEaEnZlmFoHE-38" target="_0T6k4tGbEaEnZlmFoHE-43">
          <mxGeometry relative="1" as="geometry" />
        </mxCell>
        <mxCell id="xP7PlJAVUtk49BZv3N8O-119" style="edgeStyle=orthogonalEdgeStyle;rounded=0;orthogonalLoop=1;jettySize=auto;html=1;entryX=0.5;entryY=0;entryDx=0;entryDy=0;" edge="1" parent="xP7PlJAVUtk49BZv3N8O-123" source="_0T6k4tGbEaEnZlmFoHE-39" target="_0T6k4tGbEaEnZlmFoHE-43">
          <mxGeometry relative="1" as="geometry">
            <Array as="points">
              <mxPoint x="278" y="195" />
              <mxPoint x="181" y="195" />
            </Array>
          </mxGeometry>
        </mxCell>
        <mxCell id="_0T6k4tGbEaEnZlmFoHE-38" value="&lt;font style=&quot;font-size: 11px;&quot;&gt;Alpha Diversity&lt;/font&gt;" style="rounded=0;whiteSpace=wrap;html=1;fillColor=#E3F2FD;strokeColor=#1976D2;fontSize=10;container=0;" parent="xP7PlJAVUtk49BZv3N8O-123" vertex="1">
          <mxGeometry x="20" y="135.5" width="69.21348314606742" height="40" as="geometry" />
        </mxCell>
        <mxCell id="xP7PlJAVUtk49BZv3N8O-40" value="" style="shape=curlyBracket;whiteSpace=wrap;html=1;rounded=1;labelPosition=left;verticalLabelPosition=middle;align=right;verticalAlign=middle;container=0;" vertex="1" parent="xP7PlJAVUtk49BZv3N8O-123">
          <mxGeometry x="91.68539325842697" y="135" width="23.176629213483142" height="40" as="geometry" />
        </mxCell>
        <mxCell id="xP7PlJAVUtk49BZv3N8O-26" value="&lt;ul&gt;&lt;li&gt;&lt;span style=&quot;font-size: 10px; text-align: center;&quot;&gt;Species Richness&lt;/span&gt;&lt;/li&gt;&lt;li&gt;&lt;span style=&quot;font-size: 10px; text-align: center;&quot;&gt;Shannon-Wiener Index&lt;/span&gt;&lt;/li&gt;&lt;li&gt;&lt;span style=&quot;font-size: 10px; text-align: center;&quot;&gt;Simpson&amp;nbsp;&lt;/span&gt;&lt;span style=&quot;font-size: 10px; text-align: center;&quot;&gt;Index&lt;/span&gt;&lt;/li&gt;&lt;/ul&gt;" style="text;strokeColor=none;fillColor=none;html=1;whiteSpace=wrap;verticalAlign=middle;overflow=hidden;container=0;" vertex="1" parent="xP7PlJAVUtk49BZv3N8O-123">
          <mxGeometry x="89.99539325842697" y="115" width="148.31460674157302" height="75.5" as="geometry" />
        </mxCell>
        <mxCell id="_0T6k4tGbEaEnZlmFoHE-39" value="&lt;font style=&quot;font-size: 11px;&quot;&gt;森林三维结构&lt;br&gt;参数&lt;/font&gt;" style="rounded=0;whiteSpace=wrap;html=1;fillColor=#E3F2FD;strokeColor=#1976D2;fontSize=10;container=0;" parent="xP7PlJAVUtk49BZv3N8O-123" vertex="1">
          <mxGeometry x="240" y="137.25" width="75.94273318872017" height="40" as="geometry" />
        </mxCell>
        <mxCell id="xP7PlJAVUtk49BZv3N8O-47" value="&lt;ul&gt;&lt;li&gt;&lt;span style=&quot;font-size: 10px; background-color: transparent; color: light-dark(rgb(0, 0, 0), rgb(255, 255, 255));&quot;&gt;冠层熵(CE)&lt;/span&gt;&lt;/li&gt;&lt;li&gt;&lt;span style=&quot;font-size: 10px; background-color: transparent; color: light-dark(rgb(0, 0, 0), rgb(255, 255, 255));&quot;&gt;树木冠层高度&lt;/span&gt;&lt;/li&gt;&lt;li&gt;&lt;span style=&quot;font-size: 10px; background-color: transparent; color: light-dark(rgb(0, 0, 0), rgb(255, 255, 255));&quot;&gt;树木高度变异&lt;/span&gt;&lt;/li&gt;&lt;li&gt;&lt;b style=&quot;font-size: 10px; background-color: transparent; color: light-dark(rgb(0, 0, 0), rgb(255, 255, 255));&quot;&gt;......&lt;/b&gt;&lt;/li&gt;&lt;/ul&gt;" style="text;strokeColor=none;fillColor=none;html=1;whiteSpace=wrap;verticalAlign=middle;overflow=hidden;container=0;" vertex="1" parent="xP7PlJAVUtk49BZv3N8O-123">
          <mxGeometry x="321.16" y="112.75" width="108.84" height="75.5" as="geometry" />
        </mxCell>
        <mxCell id="xP7PlJAVUtk49BZv3N8O-48" value="" style="shape=curlyBracket;whiteSpace=wrap;html=1;rounded=1;labelPosition=left;verticalLabelPosition=middle;align=right;verticalAlign=middle;container=0;" vertex="1" parent="xP7PlJAVUtk49BZv3N8O-123">
          <mxGeometry x="321.1637960954447" y="129" width="22.251220824295007" height="55" as="geometry" />
        </mxCell>
        <mxCell id="xP7PlJAVUtk49BZv3N8O-70" value="" style="html=1;shadow=0;dashed=0;align=center;verticalAlign=middle;shape=mxgraph.arrows2.arrow;dy=0.69;dx=17.31;direction=south;notch=0;" vertex="1" parent="xP7PlJAVUtk49BZv3N8O-92">
          <mxGeometry x="190" y="276" width="60" height="30" as="geometry" />
        </mxCell>
        <mxCell id="xP7PlJAVUtk49BZv3N8O-76" value="" style="rounded=0;whiteSpace=wrap;html=1;strokeColor=default;strokeWidth=2;strokeDashArray=5 5;fillColor=#FAFAFA;dashed=1;" vertex="1" parent="1">
          <mxGeometry x="20" y="710" width="440" height="350" as="geometry" />
        </mxCell>
        <mxCell id="xP7PlJAVUtk49BZv3N8O-77" value="&lt;font style=&quot;font-size: 14px;&quot; face=&quot;Times New Roman&quot;&gt;第四章：&lt;/font&gt;&lt;font face=&quot;Times New Roman&quot; color=&quot;#000000&quot;&gt;&lt;span style=&quot;font-size: 14px;&quot;&gt;森林三维光辐射时空格局&lt;/span&gt;&lt;/font&gt;&lt;span style=&quot;background-color: transparent; color: light-dark(rgb(0, 0, 0), rgb(237, 237, 237)); text-align: center; font-size: 14px; font-family: &amp;quot;Times New Roman&amp;quot;;&quot;&gt;及其与复杂森林三维结构的关系&lt;/span&gt;" style="text;html=1;strokeColor=none;fillColor=none;align=left;verticalAlign=middle;whiteSpace=wrap;rounded=0;fontStyle=1;fontSize=12;fontColor=#D32F2F;" vertex="1" parent="1">
          <mxGeometry x="35" y="710.0042352941176" width="440" height="42.35294117647058" as="geometry" />
        </mxCell>
        <mxCell id="xP7PlJAVUtk49BZv3N8O-78" value="&lt;font style=&quot;font-size: 11px;&quot;&gt;&amp;nbsp;2.2 森林光辐射时空分布格局与森林三维结构的关系如何？&lt;/font&gt;" style="rounded=0;whiteSpace=wrap;html=1;fillColor=#E8F5E8;strokeColor=#388E3C;fontSize=10;" vertex="1" parent="1">
          <mxGeometry x="260" y="984.6499999999999" width="180" height="42.35" as="geometry" />
        </mxCell>
        <mxCell id="xP7PlJAVUtk49BZv3N8O-101" style="edgeStyle=orthogonalEdgeStyle;rounded=0;orthogonalLoop=1;jettySize=auto;html=1;entryX=0.5;entryY=0;entryDx=0;entryDy=0;" edge="1" parent="1" source="xP7PlJAVUtk49BZv3N8O-82" target="xP7PlJAVUtk49BZv3N8O-94">
          <mxGeometry relative="1" as="geometry" />
        </mxCell>
        <mxCell id="xP7PlJAVUtk49BZv3N8O-124" style="edgeStyle=orthogonalEdgeStyle;rounded=0;orthogonalLoop=1;jettySize=auto;html=1;" edge="1" parent="1" source="xP7PlJAVUtk49BZv3N8O-82" target="xP7PlJAVUtk49BZv3N8O-86">
          <mxGeometry relative="1" as="geometry" />
        </mxCell>
        <mxCell id="xP7PlJAVUtk49BZv3N8O-82" value="激光雷达提取&lt;br&gt;森林三维结构数据库" style="shape=datastore;whiteSpace=wrap;html=1;" vertex="1" parent="1">
          <mxGeometry x="170" y="750.0011764705882" width="160" height="52.941176470588225" as="geometry" />
        </mxCell>
        <mxCell id="xP7PlJAVUtk49BZv3N8O-135" style="edgeStyle=orthogonalEdgeStyle;rounded=0;orthogonalLoop=1;jettySize=auto;html=1;entryX=0.5;entryY=0;entryDx=0;entryDy=0;" edge="1" parent="1" source="xP7PlJAVUtk49BZv3N8O-86" target="xP7PlJAVUtk49BZv3N8O-78">
          <mxGeometry relative="1" as="geometry">
            <Array as="points">
              <mxPoint x="405" y="947.59" />
              <mxPoint x="350" y="947.59" />
            </Array>
          </mxGeometry>
        </mxCell>
        <mxCell id="xP7PlJAVUtk49BZv3N8O-86" value="&lt;font style=&quot;font-size: 11px;&quot;&gt;森林三维结构&lt;br&gt;参数&lt;/font&gt;" style="rounded=0;whiteSpace=wrap;html=1;fillColor=#E3F2FD;strokeColor=#1976D2;fontSize=10;" vertex="1" parent="1">
          <mxGeometry x="370" y="837.1452941176472" width="70" height="42.35294117647058" as="geometry" />
        </mxCell>
        <mxCell id="xP7PlJAVUtk49BZv3N8O-109" style="edgeStyle=orthogonalEdgeStyle;rounded=0;orthogonalLoop=1;jettySize=auto;html=1;entryX=0.5;entryY=0;entryDx=0;entryDy=0;" edge="1" parent="1" source="xP7PlJAVUtk49BZv3N8O-96" target="xP7PlJAVUtk49BZv3N8O-106">
          <mxGeometry relative="1" as="geometry" />
        </mxCell>
        <mxCell id="xP7PlJAVUtk49BZv3N8O-116" style="edgeStyle=orthogonalEdgeStyle;rounded=0;orthogonalLoop=1;jettySize=auto;html=1;entryX=0.5;entryY=0;entryDx=0;entryDy=0;" edge="1" parent="1" source="xP7PlJAVUtk49BZv3N8O-96" target="xP7PlJAVUtk49BZv3N8O-78">
          <mxGeometry relative="1" as="geometry">
            <Array as="points">
              <mxPoint x="350" y="947.59" />
            </Array>
          </mxGeometry>
        </mxCell>
        <mxCell id="xP7PlJAVUtk49BZv3N8O-96" value="森林三维场景&lt;br&gt;光辐射分布数据库" style="shape=datastore;whiteSpace=wrap;html=1;" vertex="1" parent="1">
          <mxGeometry x="40" y="910.5311764705882" width="160" height="52.941176470588225" as="geometry" />
        </mxCell>
        <mxCell id="xP7PlJAVUtk49BZv3N8O-98" value="" style="edgeStyle=orthogonalEdgeStyle;rounded=0;orthogonalLoop=1;jettySize=auto;html=1;" edge="1" parent="1" source="xP7PlJAVUtk49BZv3N8O-94" target="xP7PlJAVUtk49BZv3N8O-96">
          <mxGeometry relative="1" as="geometry" />
        </mxCell>
        <mxCell id="xP7PlJAVUtk49BZv3N8O-99" value="" style="edgeStyle=orthogonalEdgeStyle;rounded=0;orthogonalLoop=1;jettySize=auto;html=1;" edge="1" parent="1" source="xP7PlJAVUtk49BZv3N8O-95" target="xP7PlJAVUtk49BZv3N8O-96">
          <mxGeometry relative="1" as="geometry" />
        </mxCell>
        <mxCell id="xP7PlJAVUtk49BZv3N8O-106" value="&lt;font style=&quot;font-size: 11px;&quot;&gt;2.1 森林三维光辐射时空分布格局&lt;/font&gt;" style="rounded=0;whiteSpace=wrap;html=1;fillColor=#E8F5E8;strokeColor=#388E3C;fontSize=10;" vertex="1" parent="1">
          <mxGeometry x="30" y="984.6488235294116" width="180" height="42.35294117647058" as="geometry" />
        </mxCell>
        <mxCell id="xP7PlJAVUtk49BZv3N8O-125" value="&lt;font style=&quot;font-size: 11px;&quot;&gt;三维结构直接影响森林光辐射的传输&lt;/font&gt;" style="text;html=1;strokeColor=none;fillColor=none;align=center;verticalAlign=middle;whiteSpace=wrap;rounded=0;fontSize=10;fontStyle=2;fontColor=#666666;" vertex="1" parent="1">
          <mxGeometry x="150" y="929.5" width="320" height="15" as="geometry" />
        </mxCell>
        <mxCell id="xP7PlJAVUtk49BZv3N8O-136" value="&lt;font style=&quot;font-size: 10px;&quot;&gt;&lt;span style=&quot;font-style: normal;&quot;&gt;1. 区分不同地物类型的&lt;/span&gt;&lt;span style=&quot;font-style: normal;&quot;&gt;辐射&lt;/span&gt;&lt;span style=&quot;font-style: normal;&quot;&gt;反射、透射和吸收能力&lt;/span&gt;&lt;/font&gt;&lt;div&gt;&lt;span style=&quot;font-style: normal;&quot;&gt;&lt;font style=&quot;font-size: 10px;&quot;&gt;2. 可调整太阳高度角和方位角，进行多时段反演&lt;/font&gt;&lt;/span&gt;&lt;/div&gt;" style="rounded=0;whiteSpace=wrap;html=1;fillColor=#f5f5f5;strokeColor=#666666;fontSize=11;fontStyle=2;align=left;dashed=1;dashPattern=1 2;fontColor=#333333;" vertex="1" parent="1">
          <mxGeometry x="232" y="838.5899999999999" width="130" height="60" as="geometry" />
        </mxCell>
        <mxCell id="xP7PlJAVUtk49BZv3N8O-141" value="" style="edgeStyle=orthogonalEdgeStyle;rounded=0;orthogonalLoop=1;jettySize=auto;html=1;" edge="1" parent="1" source="xP7PlJAVUtk49BZv3N8O-95" target="xP7PlJAVUtk49BZv3N8O-136">
          <mxGeometry relative="1" as="geometry" />
        </mxCell>
        <mxCell id="xP7PlJAVUtk49BZv3N8O-94" value="森林三维场景构建" style="rounded=0;whiteSpace=wrap;html=1;fillColor=#fff2cc;strokeColor=#d6b656;fontSize=10;" vertex="1" parent="1">
          <mxGeometry x="40" y="837.1452941176472" width="70" height="42.35294117647058" as="geometry" />
        </mxCell>
        <mxCell id="xP7PlJAVUtk49BZv3N8O-95" value="三维辐射传输模型" style="rounded=0;whiteSpace=wrap;html=1;fillColor=#F3E5F5;strokeColor=#7B1FA2;fontSize=10;" vertex="1" parent="1">
          <mxGeometry x="130" y="837.1452941176472" width="70" height="42.35294117647058" as="geometry" />
        </mxCell>
        <mxCell id="xP7PlJAVUtk49BZv3N8O-181" value="" style="html=1;shadow=0;dashed=0;align=center;verticalAlign=middle;shape=mxgraph.arrows2.arrow;dy=0.69;dx=17.31;direction=south;notch=0;rotation=-90;" vertex="1" parent="1">
          <mxGeometry x="457.29" y="863.13" width="60" height="34.58" as="geometry" />
        </mxCell>
        <mxCell id="xP7PlJAVUtk49BZv3N8O-193" value="" style="group;fontStyle=1" vertex="1" connectable="0" parent="1">
          <mxGeometry x="510" y="640.75" width="440" height="47.059999999999945" as="geometry" />
        </mxCell>
        <mxCell id="xP7PlJAVUtk49BZv3N8O-182" value="" style="rounded=0;whiteSpace=wrap;html=1;strokeWidth=1;strokeDashArray=5 5;fillColor=#f5f5f5;strokeColor=#666666;fontColor=#333333;" vertex="1" parent="xP7PlJAVUtk49BZv3N8O-193">
          <mxGeometry width="440" height="47.06" as="geometry" />
        </mxCell>
        <mxCell id="xP7PlJAVUtk49BZv3N8O-183" value="&lt;b&gt;&lt;font style=&quot;font-size: 15px;&quot;&gt;图例&lt;/font&gt;&lt;/b&gt;" style="text;strokeColor=none;fillColor=none;spacingLeft=4;spacingRight=4;overflow=hidden;rotatable=0;points=[[0,0.5],[1,0.5]];portConstraint=eastwest;fontSize=12;whiteSpace=wrap;html=1;" vertex="1" parent="xP7PlJAVUtk49BZv3N8O-193">
          <mxGeometry x="5" y="7.779999999999973" width="40" height="30" as="geometry" />
        </mxCell>
        <mxCell id="xP7PlJAVUtk49BZv3N8O-184" value="&lt;span style=&quot;font-weight: normal;&quot;&gt;数据库&lt;/span&gt;" style="shape=datastore;whiteSpace=wrap;html=1;fontStyle=1" vertex="1" parent="xP7PlJAVUtk49BZv3N8O-193">
          <mxGeometry x="60" y="7.779999999999987" width="61" height="33.47" as="geometry" />
        </mxCell>
        <mxCell id="xP7PlJAVUtk49BZv3N8O-186" value="&lt;span style=&quot;font-size: 11px;&quot;&gt;提取参数&lt;/span&gt;" style="rounded=0;whiteSpace=wrap;html=1;fillColor=#E3F2FD;strokeColor=#1976D2;fontSize=10;container=0;fontStyle=0" vertex="1" parent="xP7PlJAVUtk49BZv3N8O-193">
          <mxGeometry x="142.36" y="11.969999999999986" width="57.64" height="25.09" as="geometry" />
        </mxCell>
        <mxCell id="xP7PlJAVUtk49BZv3N8O-187" value="&lt;span style=&quot;font-size: 11px;&quot;&gt;模型&lt;/span&gt;" style="rounded=0;whiteSpace=wrap;html=1;fillColor=#F3E5F5;strokeColor=#9673a6;fontSize=10;container=0;fontStyle=0" vertex="1" parent="xP7PlJAVUtk49BZv3N8O-193">
          <mxGeometry x="210" y="11.969999999999986" width="57.64" height="25.09" as="geometry" />
        </mxCell>
        <mxCell id="xP7PlJAVUtk49BZv3N8O-188" value="&lt;span style=&quot;font-size: 11px;&quot;&gt;中间变量&lt;/span&gt;" style="rounded=0;whiteSpace=wrap;html=1;fillColor=#FFF2CC;strokeColor=#D6B656;fontSize=10;container=0;fontStyle=0" vertex="1" parent="xP7PlJAVUtk49BZv3N8O-193">
          <mxGeometry x="282.36" y="11.969999999999986" width="57.64" height="25.09" as="geometry" />
        </mxCell>
        <mxCell id="xP7PlJAVUtk49BZv3N8O-189" value="&lt;span style=&quot;font-size: 11px;&quot;&gt;科学问题&lt;/span&gt;" style="rounded=0;whiteSpace=wrap;html=1;fillColor=#E8F5E8;strokeColor=#388E3C;fontSize=10;container=0;fontStyle=0" vertex="1" parent="xP7PlJAVUtk49BZv3N8O-193">
          <mxGeometry x="360" y="11.969999999999986" width="57.64" height="25.09" as="geometry" />
        </mxCell>
        <mxCell id="xP7PlJAVUtk49BZv3N8O-194" value="" style="group" vertex="1" connectable="0" parent="1">
          <mxGeometry x="510" y="710" width="440" height="350" as="geometry" />
        </mxCell>
        <mxCell id="xP7PlJAVUtk49BZv3N8O-142" value="" style="rounded=0;whiteSpace=wrap;html=1;strokeColor=default;strokeWidth=2;strokeDashArray=5 5;fillColor=#FAFAFA;dashed=1;" vertex="1" parent="xP7PlJAVUtk49BZv3N8O-194">
          <mxGeometry width="440" height="350" as="geometry" />
        </mxCell>
        <mxCell id="xP7PlJAVUtk49BZv3N8O-143" value="&lt;font style=&quot;font-size: 14px;&quot; face=&quot;Times New Roman&quot;&gt;第五章：&lt;/font&gt;&lt;font face=&quot;Times New Roman&quot; color=&quot;#000000&quot;&gt;&lt;span style=&quot;font-size: 14px;&quot;&gt;树种的光生态位划分的格局及其对树木多样性维持的影响&lt;/span&gt;&lt;/font&gt;" style="text;html=1;strokeColor=none;fillColor=none;align=left;verticalAlign=middle;whiteSpace=wrap;rounded=0;fontStyle=1;fontSize=12;fontColor=#D32F2F;" vertex="1" parent="xP7PlJAVUtk49BZv3N8O-194">
          <mxGeometry x="15" width="425" height="42.35" as="geometry" />
        </mxCell>
        <mxCell id="xP7PlJAVUtk49BZv3N8O-168" style="edgeStyle=orthogonalEdgeStyle;rounded=0;orthogonalLoop=1;jettySize=auto;html=1;entryX=0;entryY=0.5;entryDx=0;entryDy=0;" edge="1" parent="xP7PlJAVUtk49BZv3N8O-194" source="xP7PlJAVUtk49BZv3N8O-162" target="xP7PlJAVUtk49BZv3N8O-167">
          <mxGeometry relative="1" as="geometry" />
        </mxCell>
        <mxCell id="xP7PlJAVUtk49BZv3N8O-162" value="ForestGEO样地&lt;br&gt;地面普查数据库" style="shape=datastore;whiteSpace=wrap;html=1;" vertex="1" parent="xP7PlJAVUtk49BZv3N8O-194">
          <mxGeometry x="15" y="42.360000000000014" width="160" height="50" as="geometry" />
        </mxCell>
        <mxCell id="xP7PlJAVUtk49BZv3N8O-175" style="edgeStyle=orthogonalEdgeStyle;rounded=0;orthogonalLoop=1;jettySize=auto;html=1;entryX=0.5;entryY=0;entryDx=0;entryDy=0;" edge="1" parent="xP7PlJAVUtk49BZv3N8O-194" source="xP7PlJAVUtk49BZv3N8O-163" target="xP7PlJAVUtk49BZv3N8O-172">
          <mxGeometry relative="1" as="geometry" />
        </mxCell>
        <mxCell id="xP7PlJAVUtk49BZv3N8O-163" value="森林三维场景&lt;br&gt;光辐射分布数据库" style="shape=datastore;whiteSpace=wrap;html=1;" vertex="1" parent="xP7PlJAVUtk49BZv3N8O-194">
          <mxGeometry x="15" y="174.26999999999998" width="160" height="50" as="geometry" />
        </mxCell>
        <mxCell id="xP7PlJAVUtk49BZv3N8O-174" style="edgeStyle=orthogonalEdgeStyle;rounded=0;orthogonalLoop=1;jettySize=auto;html=1;entryX=0;entryY=0.5;entryDx=0;entryDy=0;" edge="1" parent="xP7PlJAVUtk49BZv3N8O-194" source="xP7PlJAVUtk49BZv3N8O-164" target="xP7PlJAVUtk49BZv3N8O-167">
          <mxGeometry relative="1" as="geometry" />
        </mxCell>
        <mxCell id="xP7PlJAVUtk49BZv3N8O-164" value="ForestGEO样地&lt;br&gt;树木高度数据库" style="shape=datastore;whiteSpace=wrap;html=1;" vertex="1" parent="xP7PlJAVUtk49BZv3N8O-194">
          <mxGeometry x="15" y="107.71000000000004" width="160" height="50" as="geometry" />
        </mxCell>
        <mxCell id="xP7PlJAVUtk49BZv3N8O-171" value="" style="edgeStyle=orthogonalEdgeStyle;rounded=0;orthogonalLoop=1;jettySize=auto;html=1;" edge="1" parent="xP7PlJAVUtk49BZv3N8O-194" source="xP7PlJAVUtk49BZv3N8O-167" target="xP7PlJAVUtk49BZv3N8O-170">
          <mxGeometry relative="1" as="geometry" />
        </mxCell>
        <mxCell id="xP7PlJAVUtk49BZv3N8O-167" value="构建胸径和树高的&lt;br&gt;二元关系模型" style="rounded=0;whiteSpace=wrap;html=1;fillColor=#F3E5F5;strokeColor=#7B1FA2;fontSize=10;" vertex="1" parent="xP7PlJAVUtk49BZv3N8O-194">
          <mxGeometry x="270" y="46.17999999999995" width="120" height="42.35" as="geometry" />
        </mxCell>
        <mxCell id="xP7PlJAVUtk49BZv3N8O-173" value="" style="edgeStyle=orthogonalEdgeStyle;rounded=0;orthogonalLoop=1;jettySize=auto;html=1;" edge="1" parent="xP7PlJAVUtk49BZv3N8O-194" source="xP7PlJAVUtk49BZv3N8O-170" target="xP7PlJAVUtk49BZv3N8O-172">
          <mxGeometry relative="1" as="geometry" />
        </mxCell>
        <mxCell id="xP7PlJAVUtk49BZv3N8O-170" value="&lt;span style=&quot;font-size: 11px;&quot;&gt;森林每木高度估计&lt;/span&gt;" style="rounded=0;whiteSpace=wrap;html=1;fillColor=#fff2cc;strokeColor=#d6b656;fontSize=10;" vertex="1" parent="xP7PlJAVUtk49BZv3N8O-194">
          <mxGeometry x="270" y="115.36000000000001" width="120" height="42.35" as="geometry" />
        </mxCell>
        <mxCell id="xP7PlJAVUtk49BZv3N8O-179" style="edgeStyle=orthogonalEdgeStyle;rounded=0;orthogonalLoop=1;jettySize=auto;html=1;exitX=0.5;exitY=1;exitDx=0;exitDy=0;entryX=0.5;entryY=0;entryDx=0;entryDy=0;" edge="1" parent="xP7PlJAVUtk49BZv3N8O-194" source="xP7PlJAVUtk49BZv3N8O-172" target="xP7PlJAVUtk49BZv3N8O-176">
          <mxGeometry relative="1" as="geometry" />
        </mxCell>
        <mxCell id="xP7PlJAVUtk49BZv3N8O-172" value="&lt;span style=&quot;font-size: 11px;&quot;&gt;提取每木上方的环境光辐射强度&lt;/span&gt;" style="rounded=0;whiteSpace=wrap;html=1;fillColor=#E3F2FD;strokeColor=#1976D2;fontSize=10;" vertex="1" parent="xP7PlJAVUtk49BZv3N8O-194">
          <mxGeometry x="270" y="188.18999999999983" width="120" height="42.35" as="geometry" />
        </mxCell>
        <mxCell id="xP7PlJAVUtk49BZv3N8O-176" value="&lt;font style=&quot;font-size: 11px;&quot;&gt;3. 森林中树种的光生态位划分的格局及其对树木多样性维持的影响&lt;/font&gt;" style="rounded=0;whiteSpace=wrap;html=1;fillColor=#E8F5E8;strokeColor=#388E3C;fontSize=10;container=0;" vertex="1" parent="xP7PlJAVUtk49BZv3N8O-194">
          <mxGeometry x="58.75" y="275.8299999999999" width="331.25" height="40" as="geometry" />
        </mxCell>
      </root>
    </mxGraphModel>
  </diagram>
</mxfile>
